<?xml version="1.0" standalone="no"?>
<!DOCTYPE svg PUBLIC "-//W3C//DTD SVG 20010904//EN"
 "http://www.w3.org/TR/2001/REC-SVG-20010904/DTD/svg10.dtd">
<svg version="1.0" xmlns="http://www.w3.org/2000/svg"
 width="128.000000pt" height="128.000000pt" viewBox="0 0 128.000000 128.000000"
 preserveAspectRatio="xMidYMid meet">

<g transform="translate(0.000000,128.000000) scale(0.100000,-0.100000)"
fill="#000000" stroke="none">
<path d="M788 1017 c-6 -84 -28 -157 -49 -157 -6 0 -9 7 -5 15 8 21 -8 62 -18
47 -11 -18 -18 -103 -11 -131 5 -21 9 -19 38 30 l32 54 57 0 c54 0 56 -1 40
-18 -12 -14 -13 -17 -1 -13 8 2 27 7 44 11 29 6 29 6 11 -14 -19 -21 -19 -21
9 -21 22 0 25 -3 16 -13 -8 -10 -7 -17 2 -26 9 -11 9 -14 0 -18 -9 -3 -10 -10
-3 -24 7 -12 7 -19 1 -19 -5 0 -8 -9 -6 -20 3 -15 -2 -20 -18 -20 -16 0 -19
-3 -8 -9 20 -13 3 -33 -22 -26 -12 2 -16 2 -9 -1 19 -9 14 -24 -9 -24 -18 0
-19 -2 -9 -15 10 -13 9 -15 -9 -15 -12 0 -19 -4 -16 -10 3 -5 0 -10 -9 -10 -8
0 -16 -6 -19 -12 -3 -10 -7 -10 -20 0 -17 15 -16 17 31 68 13 13 20 29 17 34
-3 6 -1 10 4 10 6 0 11 7 11 15 0 8 5 15 11 15 6 0 9 7 5 15 -3 8 2 19 12 24
16 10 15 10 -2 11 -11 0 -16 3 -13 6 10 10 -45 54 -68 54 -11 0 -15 -4 -10 -8
15 -10 13 -28 -7 -52 -10 -11 -16 -20 -13 -20 3 0 -13 -18 -34 -39 -22 -22
-36 -42 -33 -46 4 -4 2 -6 -3 -4 -6 1 -23 -3 -38 -9 -38 -16 -62 -15 -77 3
-10 12 -3 19 39 46 53 32 71 54 71 86 -1 11 -6 7 -14 -13 -19 -42 -51 -64 -83
-55 -14 4 -74 56 -134 116 -60 61 -107 102 -103 93 3 -10 4 -18 0 -18 -13 0
-41 58 -58 119 l-17 66 2 -58 c2 -48 0 -55 -10 -40 -7 9 -16 33 -19 52 -4 20
-10 43 -15 51 -15 27 -10 -55 6 -94 26 -61 6 -40 -25 27 -30 64 -40 52 -15
-18 19 -52 12 -56 -14 -8 -11 21 -20 31 -21 23 0 -9 9 -33 20 -55 26 -51 25
-53 -6 -24 l-27 24 13 -25 c7 -14 22 -35 33 -47 22 -25 17 -29 -14 -12 -18 9
-19 8 -10 -9 6 -11 23 -30 38 -42 26 -20 27 -21 5 -17 -19 5 -21 3 -11 -9 6
-8 18 -14 26 -14 9 0 13 -6 9 -15 -3 -9 0 -15 10 -15 10 0 14 -6 10 -15 -4
-11 2 -15 21 -15 21 0 24 -2 13 -15 -11 -13 -8 -15 15 -15 24 0 26 -2 14 -17
-13 -15 -12 -16 9 -10 19 4 22 2 18 -10 -5 -12 -1 -14 14 -10 24 6 24 5 4 -36
l-16 -32 24 27 c39 45 120 88 167 88 l41 0 -17 -27 c-10 -14 -16 -40 -15 -57
2 -28 1 -29 -8 -9 -11 27 -23 29 -44 7 -9 -8 -16 -13 -16 -10 0 3 -12 -6 -27
-20 -15 -14 -33 -22 -41 -19 -20 8 -88 -63 -74 -77 8 -8 19 -4 40 14 41 34 90
54 104 40 7 -7 3 -14 -13 -23 -28 -14 -84 -59 -74 -59 4 0 20 11 37 25 41 34
64 34 42 -1 -29 -43 -114 -76 -100 -38 6 15 4 15 -18 0 -31 -20 -67 -8 -92 29
-9 14 -23 25 -31 25 -12 0 -12 -3 1 -16 43 -42 39 -67 -6 -43 -15 8 -24 8 -34
-3 -11 -11 -6 -13 34 -16 55 -4 59 -6 42 -27 -7 -9 -9 -19 -5 -23 4 -4 14 3
22 16 17 25 58 30 67 7 8 -22 38 -18 80 10 20 13 36 23 36 21 0 -2 17 12 38
33 34 34 36 37 18 46 -24 13 -34 38 -12 29 9 -3 28 2 43 11 25 17 27 17 40 -1
7 -10 11 -32 9 -48 -7 -56 -33 -89 -98 -123 l-62 -34 -9 23 c-9 23 -9 23 -17
2 -11 -28 -23 -31 -102 -28 -38 1 -70 -2 -73 -7 -4 -5 0 -6 8 -3 8 3 18 1 21
-5 4 -6 13 -8 21 -4 8 3 15 1 15 -5 0 -12 -25 -33 -36 -31 -18 3 -34 -1 -34
-9 0 -12 41 -8 73 8 34 17 44 8 28 -26 -12 -27 -7 -45 8 -28 5 5 14 26 20 46
10 29 20 39 44 47 18 5 55 18 83 29 l51 21 37 -38 c20 -20 36 -41 36 -46 0 -6
-7 -1 -15 9 -8 11 -15 16 -15 11 0 -5 -10 2 -21 14 -17 18 -23 20 -30 9 -13
-19 -11 -28 6 -28 9 0 15 -9 15 -21 0 -15 4 -19 16 -15 11 4 18 -1 21 -14 4
-16 9 -18 19 -10 10 9 16 5 28 -17 15 -28 15 -28 22 -5 6 22 7 22 26 -9 18
-29 21 -31 30 -16 5 10 6 23 2 30 -4 6 4 3 17 -9 44 -39 52 -40 44 -6 l-6 31
31 -15 c40 -20 49 -11 28 27 -17 28 -17 29 2 19 22 -12 70 -13 70 -2 0 12 -39
52 -53 53 -7 1 6 5 27 8 50 8 55 24 13 39 -49 18 -51 16 -66 -34 -10 -32 -18
-44 -28 -40 -8 3 -12 2 -9 -3 8 -12 -21 -34 -34 -26 -5 3 -10 1 -10 -4 0 -18
-29 -12 -39 8 -13 23 9 36 29 18 10 -9 11 -9 6 0 -3 6 -3 18 0 27 5 14 9 14
22 4 13 -11 14 -11 7 1 -5 9 -2 18 9 26 15 12 15 13 -1 20 -17 6 -17 7 -1 19
16 11 12 15 -33 36 -48 23 -78 53 -92 92 -5 14 -3 16 11 9 26 -14 55 -24 78
-26 11 -1 26 -5 32 -9 7 -4 12 -2 12 4 0 7 8 9 22 5 17 -6 20 -4 15 9 -5 13
-2 15 18 10 20 -5 24 -3 19 10 -5 13 1 16 27 16 31 0 32 1 13 15 -18 13 -16
14 21 15 36 1 38 2 22 14 -16 12 -16 14 -1 20 8 3 25 6 37 6 25 0 12 16 -18
22 -14 3 -5 9 28 18 60 16 69 30 20 30 l-38 0 40 19 c22 10 47 26 55 36 14 17
13 18 -24 11 l-38 -7 36 31 c39 35 51 69 17 50 -31 -16 -32 -12 -6 26 26 39
36 94 12 64 -7 -8 -23 -24 -36 -35 -25 -21 -23 -12 10 35 9 14 20 44 23 65 6
35 5 37 -6 22 -28 -41 -81 -97 -91 -97 -6 0 -1 10 10 23 32 34 43 62 43 104
-1 34 -2 36 -12 18 -24 -42 -90 -126 -95 -121 -3 3 5 19 17 35 14 20 23 52 26
89 l5 57 -36 -65 c-19 -36 -44 -76 -55 -90 -20 -24 -19 -24 1 23 20 48 24 132
5 132 -6 0 -14 -16 -18 -35 -10 -38 -24 -74 -52 -130 -9 -19 -15 -27 -12 -18
15 54 17 93 6 134 -7 24 -16 47 -20 49 -4 2 -10 -33 -12 -78z m-423 -151 c21
-27 42 -36 29 -13 -4 6 17 -15 47 -47 58 -63 80 -96 73 -108 -10 -16 -22 -7
-55 42 -30 44 -93 90 -106 77 -2 -3 7 -23 21 -46 14 -22 26 -45 26 -51 0 -19
-25 -10 -45 17 -11 15 -28 34 -37 42 -9 8 -15 18 -12 23 3 4 -1 11 -10 14 -8
3 -12 12 -9 20 3 8 0 14 -6 14 -6 0 -11 5 -11 11 0 6 8 8 18 5 10 -4 7 2 -8
14 l-25 19 45 -3 c33 -3 49 -10 65 -30z m58 -170 c4 -10 0 -12 -14 -9 -10 3
-16 9 -13 14 8 13 21 11 27 -5z m363 -153 c-7 -7 -26 7 -26 19 0 6 6 6 15 -2
9 -7 13 -15 11 -17z m-96 -181 c0 -4 -10 -9 -22 -9 -18 -2 -20 0 -8 7 18 12
30 13 30 2z m-10 -98 c0 -8 -7 -14 -15 -14 -8 0 -15 9 -15 20 0 13 5 18 15 14
8 -4 15 -12 15 -20z m40 -4 c9 -17 8 -20 -10 -20 -13 0 -20 7 -20 20 0 11 4
20 10 20 5 0 14 -9 20 -20z"/>
<path d="M469 383 c-13 -16 -12 -17 4 -4 9 7 17 15 17 17 0 8 -8 3 -21 -13z"/>
</g>
</svg>
